<svg height="511pt" viewBox="0 0 511.99949 511" width="511pt" xmlns="http://www.w3.org/2000/svg"><path d="m294.527344 120.757812 23.800781 4.199219c.246094 1.75.550781 3.496094.914063 5.222657l-20.921876 12.082031c-6.109374 3.523437-8.207031 11.363281-4.683593 17.46875l12.125 21c3.527343 6.109375 11.335937 8.222656 17.472656 4.679687l20.929687-12.085937c1.316407 1.179687 2.667969 2.320312 4.058594 3.410156l-8.265625 22.707031c-2.417969 6.644532 1 13.976563 7.644531 16.394532l22.785157 8.292968c6.640625 2.417969 13.972656-1 16.390625-7.644531l8.265625-22.710937c1.773437.0625 3.527343.0625 5.300781 0l8.265625 22.710937c2.40625 6.613281 9.722656 10.074219 16.390625 7.644531l22.789062-8.292968c6.640626-2.417969 10.0625-9.75 7.644532-16.390626l-8.265625-22.710937c1.386719-1.089844 2.742187-2.226563 4.054687-3.40625l20.933594 12.082031c6.132812 3.542969 13.945312 1.429688 17.46875-4.679687l12.125-21c3.527344-6.105469 1.425781-13.941407-4.679688-17.46875l-20.921874-12.082031c.363281-1.726563.667968-3.472657.914062-5.222657l23.796875-4.199219c6.945313-1.222656 11.597656-7.871093 10.375-14.8125l-4.210937-23.878906c-1.226563-6.949218-7.839844-11.601562-14.816407-10.375l-23.792969 4.195313c-.832031-1.558594-1.71875-3.09375-2.65625-4.59375l15.53125-18.511719c4.546876-5.414062 3.839844-13.472656-1.574218-18.015625l-18.578125-15.585937c-5.402344-4.53125-13.480469-3.824219-18.015625 1.574218l-15.523438 18.503906c-1.644531-.660156-3.308594-1.265624-4.992187-1.816406v-24.152344c0-7.050781-5.734375-12.789062-12.789063-12.789062h-24.246094c-7.050781 0-12.789062 5.738281-12.789062 12.789062v24.152344c-1.683594.550782-3.347656 1.15625-4.988281 1.816406l-15.527344-18.503906c-4.53125-5.398437-12.617187-6.105468-18.019531-1.574218l-18.570313 15.585937c-5.417969 4.542969-6.121093 12.601563-1.578125 18.015625l15.53125 18.511719c-.933594 1.5-1.820312 3.035156-2.65625 4.59375l-23.789062-4.195313c-6.960938-1.230468-13.589844 3.410156-14.816406 10.375l-4.210938 23.878906c-1.222656 6.941407 3.429688 13.589844 10.371094 14.8125zm8.292968-33.816406 27.121094 4.78125c3.414063.597656 6.800782-1.203125 8.207032-4.375 1.882812-4.253906 4.234374-8.324218 6.996093-12.09375 2.050781-2.800781 1.921875-6.640625-.308593-9.300781l-17.714844-21.109375 15.066406-12.640625 17.703125 21.101563c2.230469 2.660156 5.992187 3.453124 9.105469 1.917968 4.183594-2.058594 8.597656-3.667968 13.125-4.777344 3.371094-.828124 5.742187-3.851562 5.742187-7.324218v-27.539063h19.664063v27.542969c0 3.472656 2.371094 6.492188 5.742187 7.324219 4.523438 1.109375 8.941407 2.714843 13.121094 4.773437 3.117187 1.535156 6.875.742188 9.109375-1.917968l17.703125-21.097657 15.0625 12.636719-17.710937 21.109375c-2.234376 2.660156-2.359376 6.5-.308594 9.300781 2.757812 3.769532 5.109375 7.839844 6.996094 12.09375 1.402343 3.171875 4.789062 4.972656 8.203124 4.375l27.125-4.78125 3.414063 19.363282-27.140625 4.785156c-3.421875.605468-5.988281 3.464844-6.214844 6.929687-.308594 4.671875-1.121094 9.300781-2.410156 13.757813-.964844 3.332031.46875 6.894531 3.472656 8.628906l23.851563 13.769531-9.832031 17.027344-23.863282-13.777344c-3.003906-1.734375-6.804687-1.195312-9.210937 1.308594-3.234375 3.367187-6.835938 6.390625-10.703125 8.988281-2.878906 1.933594-4.066406 5.582032-2.882813 8.839844l9.425781 25.886719-18.480468 6.726562-9.421875-25.890625c-1.1875-3.257812-4.4375-5.289062-7.886719-4.917968-4.65625.496093-9.328125.496093-13.988281 0-3.457031-.371094-6.699219 1.660156-7.886719 4.917968l-9.421875 25.890625-18.476563-6.726562 9.421876-25.886719c1.183593-3.257812-.003907-6.90625-2.882813-8.839844-3.867187-2.597656-7.46875-5.621094-10.703125-8.988281-2.402344-2.503906-6.203125-3.042969-9.207031-1.308594l-23.867188 13.777344-9.832031-17.027344 23.851562-13.769531c3.003907-1.734375 4.4375-5.296875 3.472657-8.628906-1.289063-4.457032-2.097657-9.085938-2.40625-13.757813-.230469-3.464843-2.796875-6.324219-6.214844-6.929687l-27.140625-4.785156zm0 0"/><path d="m397.695312 171.203125c51.851563 0 78.230469-63.046875 41.386719-99.890625-22.820312-22.820312-59.953125-22.820312-82.773437 0-36.800782 36.800781-10.511719 99.890625 41.386718 99.890625zm0-101.933594c38.523438 0 58.042969 46.832031 30.722657 74.152344-16.941407 16.941406-44.503907 16.941406-61.445313 0-27.320312-27.316406-7.800781-74.152344 30.722656-74.152344zm0 0"/><path d="m420.710938 135.714844c12.722656-12.71875 12.722656-33.308594 0-46.03125-20.335938-20.335938-55.566407-6.0625-55.566407 23.015625 0 29.097656 35.246094 43.339843 55.566407 23.015625zm-23.015626-40.484375c15.621094 0 23.253907 18.917969 12.351563 29.820312-11 11.003907-29.820313 3.109375-29.820313-12.351562 0-9.652344 7.8125-17.46875 17.46875-17.46875zm0 0"/><path d="m233.945312 305.828125c0-11.585937 3.195313-28.316406 18.429688-42.234375 55.039062-50.285156 48.851562-139.1875-13.425781-181.144531-3.453125-2.328125-8.140625-1.414063-10.464844 2.039062-2.328125 3.453125-1.414063 8.140625 2.039063 10.46875 54.300781 36.582031 59.398437 113.90625 11.679687 157.503907-3.507813 3.203124-6.5 6.519531-9.066406 9.894531h-117.359375c-2.519532-3.363281-5.464844-6.667969-8.921875-9.816407-67.671875-61.6875-23.585938-174.285156 67.632812-174.65625 10.5625 0 20.960938 1.628907 30.910157 4.84375 3.960937 1.28125 8.214843-.894531 9.496093-4.859374 1.277344-3.960938-.894531-8.210938-4.859375-9.492188-39.136718-12.648438-84.546875-4.011719-116.839844 28.039062-47.636718 47.285157-44.65625 123.375 3.5 167.269532 21.730469 19.808594 18.300782 42.269531 18.300782 77.308594 0 44.535156 47.394531 73.269531 86.8125 52.855468 3.699218-1.914062 5.144531-6.464844 3.226562-10.160156-1.914062-3.699219-6.464844-5.144531-10.160156-3.230469-29.386719 15.214844-64.796875-6.191406-64.796875-39.460937v-23.441406h88.816406v23.441406c0 7.648437-1.976562 15.1875-5.710937 21.804687-2.050782 3.625-.773438 8.226563 2.855468 10.273438 3.621094 2.050781 8.226563.769531 10.273438-2.855469 5.015625-8.875 7.664062-18.980469 7.664062-29.226562 0-36.394532-.03125-35.164063-.03125-35.164063zm-15.011718-3.351563h-88.839844c-.359375-6.226562-1.683594-15.320312-5.734375-25.039062h100.058594c-3.738281 8.933594-5.167969 17.640625-5.484375 25.039062zm0 0"/><path d="m174.488281 46.902344c4.164063 0 7.539063-3.375 7.539063-7.539063v-31.324219c0-4.164062-3.375-7.539062-7.539063-7.539062-4.167969 0-7.542969 3.375-7.542969 7.539062v31.324219c0 4.164063 3.375 7.539063 7.542969 7.539063zm0 0"/><path d="m74.660156 87.574219c6.65625 0 10.097656-8.109375 5.332032-12.871094l-22.148438-22.152344c-2.945312-2.941406-7.71875-2.941406-10.664062 0-2.945313 2.945313-2.945313 7.722657 0 10.664063 23.441406 23.445312 23.261718 24.359375 27.480468 24.359375zm0 0"/><path d="m46.402344 179.378906c0-4.164062-3.375-7.539062-7.539063-7.539062h-31.324219c-4.164062 0-7.539062 3.375-7.539062 7.539062 0 4.164063 3.375 7.539063 7.539062 7.539063h31.324219c4.164063 0 7.539063-3.375 7.539063-7.539063zm0 0"/><path d="m68.167969 273.875-22.148438 22.148438c-2.945312 2.945312-2.945312 7.71875 0 10.664062 2.945313 2.941406 7.71875 2.941406 10.664063 0l22.148437-22.152344c2.945313-2.945312 2.945313-7.71875 0-10.660156-2.945312-2.945312-7.71875-2.945312-10.664062 0zm0 0"/><path d="m500.660156 388.671875c7.449219-1.3125 12.441406-8.445313 11.128906-15.898437 0 0-4.957031-28.125-4.957031-28.125-1.316406-7.453126-8.449219-12.441407-15.898437-11.132813l-28.984375 5.113281c-1.25-2.394531-2.601563-4.734375-4.054688-7.011718l18.921875-22.550782c4.875-5.808594 4.121094-14.460937-1.691406-19.332031l-21.878906-18.359375c-5.796875-4.863281-14.46875-4.105469-19.332032 1.691406l-18.914062 22.539063c-2.496094-1.03125-5.039062-1.957031-7.617188-2.769531v-29.425782c0-7.566406-6.15625-13.722656-13.722656-13.722656h-28.558594c-7.566406 0-13.722656 6.15625-13.722656 13.722656v29.425782c-2.578125.8125-5.121094 1.738281-7.617187 2.769531l-18.914063-22.539063c-4.875-5.808594-13.523437-6.566406-19.332031-1.691406l-21.878906 18.359375c-5.808594 4.871094-6.566407 13.519531-1.691407 19.332031l18.921876 22.550782c-1.453126 2.277343-2.804688 4.617187-4.054688 7.011718l-28.984375-5.109375c-7.449219-1.3125-14.582031 3.675781-15.894531 11.128907l-4.960938 28.125c-1.3125 7.453124 3.679688 14.582031 11.128906 15.898437l28.996094 5.109375c.347656 2.683594.816406 5.347656 1.394532 7.980469l-25.488282 14.714843c-6.550781 3.78125-8.804687 12.191407-5.019531 18.746094l14.277344 24.734375c3.785156 6.550781 12.191406 8.804688 18.746093 5.023438l25.5-14.722657c1.992188 1.820313 4.0625 3.558594 6.199219 5.203126l-10.070312 27.667968c-2.585938 7.109375 1.09375 15 8.203125 17.585938l26.835937 9.769531c7.109375 2.585937 15-1.089844 17.589844-8.203125l10.066406-27.667969c2.707031.121094 5.386719.121094 8.09375 0l10.070313 27.667969c2.59375 7.128906 10.460937 10.796875 17.589844 8.203125l26.835937-9.769531c7.109375-2.585938 10.789063-10.476563 8.203125-17.585938l-10.070312-27.667968c2.136718-1.644532 4.207031-3.382813 6.195312-5.203126l25.503906 14.722657c6.566406 3.792969 14.953125 1.546875 18.742188-5.023438l14.28125-24.734375c3.785156-6.554687 1.53125-14.960937-5.023438-18.746094l-25.488281-14.714843c.582031-2.632813 1.046875-5.296875 1.398437-7.976563zm-42.875 23.296875 29.253906 16.886719-12.921874 22.382812-29.269532-16.902343c-3.003906-1.734376-6.804687-1.195313-9.210937 1.308593-3.875 4.035157-8.191407 7.660157-12.824219 10.773438-2.878906 1.933593-4.066406 5.578125-2.878906 8.835937l11.554687 31.753906-24.28125 8.835938c-17.691406-48.597656-8.457031-33.710938-36.207031-36.671875-3.453125-.367187-6.699219 1.660156-7.886719 4.917969l-11.554687 31.753906-24.285156-8.835938 11.558593-31.753906c1.183594-3.257812-.003906-6.902344-2.882812-8.835937-4.632813-3.113281-8.949219-6.738281-12.824219-10.773438-2.40625-2.503906-6.207031-3.042969-9.210938-1.308593l-29.269531 16.902343-12.921875-22.382812 29.253906-16.886719c3.003907-1.734375 4.4375-5.292969 3.472657-8.625-7.8125-27 8.601562-20.296875-42.386719-29.289062l4.484375-25.449219 33.265625 5.867187c3.414062.597656 6.804688-1.207031 8.207031-4.375 2.257813-5.101562 5.078125-9.976562 8.382813-14.496094 2.050781-2.800781 1.925781-6.640624-.308594-9.300781l-21.722656-25.890625 19.796875-16.609375 21.714843 25.878907c2.230469 2.660156 5.992188 3.453124 9.105469 1.917968 5.011719-2.464844 10.304688-4.390625 15.730469-5.722656 3.371094-.828125 5.742188-3.851562 5.742188-7.324219v-33.78125h25.839843v33.78125c0 3.472657 2.371094 6.492188 5.742188 7.324219 5.425781 1.332031 10.71875 3.257812 15.730469 5.722656 3.113281 1.535156 6.875.742188 9.105468-1.917968l21.714844-25.878907 19.796875 16.613281-21.722656 25.886719c-2.234375 2.660157-2.363281 6.5-.3125 9.300781 3.308593 4.519532 6.128906 9.394532 8.386719 14.496094 1.402343 3.171875 4.789062 4.972656 8.203124 4.375l33.269532-5.867187 4.484375 25.449219-33.285157 5.871093c-3.417968.601563-5.984374 3.460938-6.214843 6.925781-.371094 5.601563-1.339844 11.148438-2.886719 16.492188-.964844 3.332031.46875 6.890625 3.472656 8.625zm0 0"/><path d="m355.46875 317.253906c-3.894531 1.476563-5.859375 5.828125-4.386719 9.722656 1.476563 3.894532 5.828125 5.859376 9.722657 4.386719 34.328124-12.988281 71.09375 12.542969 71.09375 49.136719 0 28.957031-23.558594 52.515625-52.519532 52.515625-44.78125 0-68.925781-52.738281-39.921875-86.636719 2.707031-3.164062 2.335938-7.921875-.828125-10.632812-3.164062-2.707032-7.921875-2.335938-10.632812.828125-37.324219 43.628906-6.273438 111.523437 51.382812 111.523437 37.273438 0 67.597656-30.324218 67.597656-67.597656.003907-47.058594-47.265624-79.976562-91.507812-63.246094zm0 0"/><path d="m379.378906 423.398438c37.949219-.003907 57.449219-46.144532 30.347656-73.246094-27.027343-27.027344-73.265624-7.628906-73.265624 30.347656 0 23.824219 19.292968 42.902344 42.917968 42.898438zm0-70.722657c24.914063 0 37.050782 30.140625 19.6875 47.507813-10.855468 10.851562-28.515625 10.851562-39.367187 0-17.308594-17.304688-5.308594-47.507813 19.679687-47.507813zm0 0"/></svg>