<?xml version="1.0" encoding="iso-8859-1"?>
<!-- Generator: Adobe Illustrator 19.0.0, SVG Export Plug-In . SVG Version: 6.00 Build 0)  -->
<svg xmlns="http://www.w3.org/2000/svg" xmlns:xlink="http://www.w3.org/1999/xlink" version="1.1" id="Layer_1" x="0px" y="0px" viewBox="0 0 512 512" style="enable-background:new 0 0 512 512;" xml:space="preserve" width="512" height="512">
<g id="XMLID_2036_">
	<g id="XMLID_1417_">
		<path id="XMLID_1426_" d="M342.14,337.96c46.916,0,85.666-35.606,90.663-81.213h7.111c5.523,0,10-4.477,10-10    c0-59.426-48.347-107.773-107.773-107.773c-5.523,0-10,4.477-10,10v7.111c-45.608,4.996-81.214,43.747-81.214,90.663    C250.926,297.042,291.845,337.96,342.14,337.96z M352.14,159.539c40.428,4.604,72.604,36.779,77.208,77.208H352.14V159.539z     M332.14,222.604l-32.763-32.762c9.394-7.077,20.589-11.874,32.763-13.593V222.604z M285.235,203.984l49.833,49.832    c1.81,1.81,4.31,2.93,7.072,2.93h70.497c-4.878,34.547-34.625,61.213-70.497,61.213c-39.268,0-71.214-31.946-71.214-71.213    C270.926,230.712,276.257,215.901,285.235,203.984z"/>
		<path id="XMLID_1444_" d="M237.959,186.04h-63.873c-5.523,0-10,4.477-10,10s4.477,10,10,10h63.873c5.523,0,10-4.477,10-10    S243.482,186.04,237.959,186.04z"/>
		<path id="XMLID_1445_" d="M123.088,158.04h114.871c5.523,0,10-4.477,10-10s-4.477-10-10-10H123.088c-5.523,0-10,4.477-10,10    S117.565,158.04,123.088,158.04z"/>
		<path id="XMLID_1447_" d="M83.09,158.04c2.63,0,5.21-1.07,7.07-2.93c1.86-1.86,2.93-4.44,2.93-7.07c0-2.63-1.07-5.21-2.93-7.07    c-1.86-1.86-4.44-2.93-7.07-2.93c-2.64,0-5.21,1.07-7.08,2.93c-1.86,1.86-2.92,4.44-2.92,7.07c0,2.63,1.06,5.21,2.92,7.07    C77.88,156.97,80.45,158.04,83.09,158.04z"/>
		<path id="XMLID_1503_" d="M72.086,337.961h48h48h48c5.523,0,10-4.478,10-10v-49.062c0-5.522-4.477-10-10-10h-38v-23.101    c0-5.523-4.477-10-10-10h-38v-16.575c0-5.523-4.477-10-10-10h-48c-5.523,0-10,4.477-10,10v108.737    C62.086,333.483,66.563,337.961,72.086,337.961z M206.086,288.899v29.062h-28v-29.062H206.086z M158.086,255.799v23.101v39.062    h-28v-62.162H158.086z M82.086,229.224h28v16.575v72.162h-28V229.224z"/>
		<path id="XMLID_1516_" d="M502,0H10C4.477,0,0,4.477,0,10v56c0,5.523,4.477,10,10,10v314c0,16.542,13.458,30,30,30h206v25.503    c-13.882,4.281-24,17.228-24,32.497c0,18.748,15.252,34,34,34s34-15.252,34-34c0-15.269-10.118-28.217-24-32.497V420h206    c16.542,0,30-13.458,30-30V76c5.523,0,10-4.477,10-10V10C512,4.477,507.523,0,502,0z M256,492c-7.72,0-14-6.28-14-14    s6.28-14,14-14s14,6.28,14,14S263.72,492,256,492z M20,20h472v36H20V20z M482,390c0,5.514-4.486,10-10,10H40    c-5.514,0-10-4.486-10-10V76h452V390z"/>
	</g>
</g>















</svg>
