<?xml version="1.0" encoding="iso-8859-1"?>
<!-- Generator: Adobe Illustrator 19.0.0, SVG Export Plug-In . SVG Version: 6.00 Build 0)  -->
<svg version="1.1" id="Capa_1" xmlns="http://www.w3.org/2000/svg" xmlns:xlink="http://www.w3.org/1999/xlink" x="0px" y="0px"
	 viewBox="0 0 470 470" style="enable-background:new 0 0 470 470;" xml:space="preserve">
<g>
	<path d="M421.865,310.028l-36.496-65.026h5.443c2.663,0,5.126-1.412,6.472-3.71s1.372-5.138,0.068-7.46l-36.496-65.026h5.444
		c2.663,0,5.126-1.412,6.472-3.71s1.372-5.138,0.068-7.46l-40.14-71.52c-1.328-2.365-3.829-3.829-6.541-3.829
		s-5.213,1.464-6.541,3.829l-13.708,24.424c-2.027,3.612-0.742,8.184,2.87,10.211c3.613,2.027,8.184,0.743,10.211-2.87l7.167-12.771
		l27.33,48.696h-5.444c-2.663,0-5.126,1.412-6.472,3.71s-1.372,5.138-0.068,7.46l36.496,65.026h-5.443
		c-2.663,0-5.126,1.412-6.472,3.71s-1.372,5.138-0.068,7.46l36.496,65.026h-23.131c-4.142,0-7.5,3.358-7.5,7.5s3.358,7.5,7.5,7.5
		h35.94c2.663,0,5.126-1.412,6.472-3.71S423.168,312.351,421.865,310.028z"/>
	<path d="M98.114,313.699c0-4.142-3.358-7.5-7.5-7.5h-23.13l36.496-65.026c1.303-2.323,1.277-5.162-0.068-7.46
		s-3.809-3.71-6.472-3.71h-5.444l36.496-65.026c1.303-2.323,1.277-5.162-0.068-7.46s-3.809-3.71-6.472-3.71h-5.443l27.33-48.696
		l7.167,12.771c2.027,3.612,6.598,4.896,10.211,2.87c3.612-2.027,4.897-6.599,2.87-10.211l-13.708-24.424
		c-1.328-2.365-3.828-3.83-6.541-3.83c-2.712,0-5.213,1.464-6.541,3.829l-40.14,71.52c-1.303,2.323-1.277,5.162,0.068,7.46
		s3.809,3.71,6.472,3.71h5.443l-36.496,65.026c-1.303,2.323-1.277,5.162,0.068,7.46s3.809,3.71,6.472,3.71h5.444l-36.496,65.026
		c-1.303,2.323-1.277,5.162,0.068,7.46s3.809,3.71,6.472,3.71h35.94C94.756,321.199,98.114,317.841,98.114,313.699z"/>
	<path d="M223.924,177.363c-4.142,0-7.5,3.358-7.5,7.5v10c0,4.142,3.358,7.5,7.5,7.5s7.5-3.358,7.5-7.5v-10
		C231.424,180.721,228.066,177.363,223.924,177.363z"/>
	<path d="M253.778,245.025c-4.142,0-7.5,3.358-7.5,7.5v10c0,4.142,3.358,7.5,7.5,7.5s7.5-3.358,7.5-7.5v-10
		C261.278,248.383,257.92,245.025,253.778,245.025z"/>
	<path d="M401.17,68.83C356.785,24.444,297.771,0,235,0S113.215,24.444,68.83,68.83C24.444,113.215,0,172.229,0,235
		s24.444,121.785,68.83,166.17C113.215,445.556,172.229,470,235,470s121.785-24.444,166.17-68.83
		C445.556,356.785,470,297.771,470,235S445.556,113.215,401.17,68.83z M235,455c-121.309,0-220-98.691-220-220S113.691,15,235,15
		s220,98.691,220,220S356.309,455,235,455z"/>
	<path d="M386.012,354.642h-52.35v-10.942c0-4.142-3.358-7.5-7.5-7.5s-7.5,3.358-7.5,7.5v10.942H242.5v-33.442h102.483
		c2.663,0,5.126-1.412,6.472-3.71s1.372-5.138,0.068-7.46l-46.481-82.818h9.726c4.142,0,7.5-3.358,7.5-7.5
		c0-1.521-0.453-2.937-1.231-4.118l-46.23-82.372h9.706c4.162,0,7.52-3.358,7.52-7.5c0-1.521-0.453-2.937-1.231-4.119L241.54,33.829
		C240.212,31.464,237.711,30,235,30s-5.213,1.464-6.541,3.829l-49.513,88.22c-1.303,2.323-1.277,5.162,0.068,7.46
		s3.809,3.71,6.472,3.71h9.706l-46.481,82.819c-1.303,2.323-1.277,5.162,0.068,7.46s3.809,3.71,6.472,3.71h9.706l-46.481,82.818
		c-1.303,2.323-1.277,5.162,0.068,7.46s3.809,3.71,6.472,3.71H227.5v33.442h-76.163v-10.942c0-4.142-3.358-7.5-7.5-7.5
		s-7.5,3.358-7.5,7.5v10.942H83.983c-2.918,0-5.571,1.692-6.801,4.339c-1.23,2.646-0.813,5.765,1.068,7.996
		C117.383,413.384,174.516,440,235,440c22.846,0,45.308-3.758,66.762-11.169c3.915-1.353,5.993-5.623,4.64-9.538
		c-1.352-3.916-5.625-5.993-9.538-4.64C276.989,421.519,256.175,425,235,425c-50.456,0-98.397-19.989-133.928-55.358h267.856
		c-13.43,13.375-28.709,24.615-45.594,33.523c-3.664,1.933-5.067,6.469-3.134,10.133c1.933,3.664,6.471,5.066,10.133,3.134
		c23.56-12.429,44.222-29.068,61.413-49.455c1.881-2.231,2.298-5.35,1.068-7.996C391.583,356.334,388.93,354.642,386.012,354.642z
		 M137.826,306.199l46.481-82.818c1.303-2.323,1.277-5.162-0.068-7.46s-3.809-3.71-6.472-3.71h-9.706l46.481-82.819
		c1.303-2.323,1.277-5.162-0.068-7.46s-3.809-3.71-6.472-3.71h-9.706L235,52.824l36.703,65.396h-9.706
		c-2.663,0-5.126,1.412-6.472,3.71s-1.372,5.138-0.068,7.46l46.481,82.819h-9.706c-2.663,0-5.126,1.412-6.472,3.71
		s-1.372,5.138-0.068,7.46l46.481,82.818H137.826z"/>
</g>
<g>
</g>
<g>
</g>
<g>
</g>
<g>
</g>
<g>
</g>
<g>
</g>
<g>
</g>
<g>
</g>
<g>
</g>
<g>
</g>
<g>
</g>
<g>
</g>
<g>
</g>
<g>
</g>
<g>
</g>
</svg>
